<?xml version="1.0" encoding="UTF-8"?><svg id="Laag_1" xmlns="http://www.w3.org/2000/svg" xmlns:xlink="http://www.w3.org/1999/xlink" viewBox="0 0 991.45 882.35"><defs><style>.cls-1{fill:url(#Naamloos_verloop_450);}.cls-2{fill:url(#Naamloos_verloop_450-2);}</style><linearGradient id="Naamloos_verloop_450" x1="327.43" y1="520.09" x2="809.73" y2="520.09" gradientUnits="userSpaceOnUse"><stop offset="0" stop-color="#941000"/><stop offset=".52" stop-color="#d70822"/><stop offset="1" stop-color="#d60041"/></linearGradient><linearGradient id="Naamloos_verloop_450-2" x1="181.72" y1="366.68" x2="654.99" y2="366.68" xlink:href="#Naamloos_verloop_450"/></defs><path class="cls-1" d="m768.2,285.01h-97.72v321.24h-63.3v-219.11c-1.28-.5-2.56-1-3.84-1.5-35.43,56.76-70.87,113.51-107.4,172.03-36.38-58.28-71.88-115.13-107.38-171.99l-3.33,1.07v219.45h0l-57.8,100.11c48.64,30.94,106.37,48.87,168.29,48.87,173.42,0,314-140.58,314-314,0-56.85-15.11-110.17-41.53-156.16Z"/><path class="cls-2" d="m320.97,606.19v-329.93c24.15,0,47.73-.56,71.24.51,4.35.2,9.53,6.26,12.4,10.82,27.63,43.82,54.82,87.92,82.2,131.9,2.6,4.17,5.59,8.1,9.52,13.75,16.48-26.44,32.07-51.41,47.62-76.4,14.91-23.97,29.56-48.1,44.92-71.78.01-.02.02-.03.03-.05l66.09-114.47c-46.7-27.54-101.13-43.35-159.26-43.35-173.42,0-314,140.58-314,314,0,60.54,17.15,117.06,46.83,165.02h92.42Z"/></svg>