<?xml version="1.0" standalone="no"?>
<!DOCTYPE svg PUBLIC "-//W3C//DTD SVG 20010904//EN"
 "http://www.w3.org/TR/2001/REC-SVG-20010904/DTD/svg10.dtd">
<svg version="1.0" xmlns="http://www.w3.org/2000/svg"
 width="991.000000pt" height="991.000000pt" viewBox="0 0 991.000000 991.000000"
 preserveAspectRatio="xMidYMid meet">
<metadata>
Created by potrace 1.14, written by Peter Selinger 2001-2017
</metadata>
<g transform="translate(0.000000,991.000000) scale(0.100000,-0.100000)"
fill="#000000" stroke="none">
<path d="M4717 8094 c-2 -3 -40 -8 -142 -18 -27 -3 -59 -8 -70 -10 -29 -5
-117 -19 -137 -22 -10 -1 -19 -2 -20 -4 -3 -2 -20 -6 -63 -14 -64 -12 -76 -15
-152 -36 -43 -12 -82 -23 -88 -24 -5 -2 -14 -5 -20 -6 -19 -5 -220 -78 -250
-91 -16 -7 -32 -13 -35 -14 -42 -14 -342 -163 -350 -173 -3 -4 -25 -18 -49
-31 -47 -26 -263 -170 -271 -181 -3 -4 -21 -17 -40 -29 -19 -11 -31 -21 -27
-21 5 0 -12 -15 -36 -34 -80 -61 -100 -79 -249 -229 -81 -81 -150 -156 -153
-167 -4 -11 -11 -18 -16 -15 -5 4 -9 3 -9 -2 0 -4 -10 -20 -23 -35 -12 -14
-29 -36 -37 -48 -8 -12 -20 -28 -25 -34 -59 -63 -231 -339 -309 -493 -62 -124
-177 -410 -191 -473 -2 -8 -13 -50 -25 -92 -11 -43 -23 -87 -25 -98 -2 -12 -6
-29 -9 -38 -3 -9 -7 -28 -10 -42 -3 -14 -7 -36 -11 -50 -3 -14 -7 -41 -10 -60
-3 -19 -7 -46 -10 -60 -10 -51 -27 -213 -29 -277 0 -24 -3 -43 -6 -43 -8 0 -4
-295 4 -308 3 -6 2 -13 -4 -17 -6 -4 -8 -11 -4 -17 3 -5 8 -35 10 -66 8 -107
20 -211 30 -262 3 -14 6 -34 8 -45 11 -65 36 -178 61 -277 3 -10 7 -26 9 -35
9 -38 66 -202 97 -283 18 -47 33 -87 34 -90 1 -13 133 -273 166 -329 22 -34
39 -65 39 -68 0 -17 36 -29 65 -23 18 4 40 3 49 -2 10 -6 16 -5 16 2 0 7 6 8
16 2 9 -5 32 -6 50 -2 20 5 34 4 34 -2 0 -5 6 -5 16 0 8 5 35 6 58 2 24 -3 52
-3 62 0 11 4 28 4 39 0 11 -4 34 -4 52 1 18 4 36 3 39 -2 3 -5 10 -7 15 -4 10
7 141 8 182 2 15 -2 30 0 33 4 3 5 13 5 23 -1 12 -6 22 -5 29 2 9 9 12 9 12 0
0 -9 5 -10 16 -4 9 5 34 6 55 2 21 -4 39 -4 39 0 0 4 8 7 18 6 16 -1 17 83 19
1624 1 894 2 1635 2 1647 1 21 3 22 164 22 89 0 167 0 172 1 16 2 339 -5 387
-9 20 -1 98 -72 98 -89 0 -7 3 -12 8 -12 4 0 18 -20 31 -45 13 -25 28 -45 32
-45 5 0 9 -5 9 -11 0 -6 14 -31 30 -56 17 -24 30 -48 30 -54 0 -5 5 -9 10 -9
6 0 10 -5 10 -11 0 -6 12 -29 28 -52 15 -23 32 -51 39 -62 6 -11 39 -63 72
-115 33 -52 60 -99 60 -103 0 -4 8 -15 16 -24 9 -9 31 -40 48 -70 18 -30 39
-65 47 -78 8 -13 28 -45 44 -72 16 -26 34 -51 40 -55 6 -4 7 -8 2 -8 -5 0 -2
-8 6 -17 22 -26 138 -214 138 -224 0 -5 5 -9 10 -9 6 0 10 -7 10 -15 0 -8 5
-15 10 -15 6 0 10 -5 10 -12 0 -7 11 -28 23 -47 13 -20 54 -82 91 -138 37 -57
71 -103 75 -103 9 0 61 78 61 91 0 5 3 9 8 9 4 0 12 9 17 19 20 40 108 183
119 194 7 7 15 19 19 27 4 8 17 32 29 52 45 73 102 164 133 213 18 28 92 147
165 265 155 252 186 301 200 317 5 7 10 17 10 22 0 5 6 16 13 23 6 7 21 29 31
48 11 19 24 40 28 45 20 24 58 87 58 95 0 4 4 10 8 12 5 2 35 49 68 106 32 57
64 111 69 120 6 9 28 49 49 87 22 39 43 72 48 73 4 2 8 12 8 23 0 10 5 19 10
19 6 0 10 7 10 15 0 8 5 15 10 15 6 0 10 6 10 13 0 7 20 46 45 86 25 40 45 74
45 76 0 2 27 49 60 105 33 56 60 103 60 105 0 2 17 32 38 66 22 35 50 84 64
109 14 25 41 73 60 106 l35 61 -66 36 c-131 70 -221 115 -221 110 0 -3 -6 -1
-12 5 -41 34 -441 172 -573 198 -11 2 -31 6 -45 9 -14 4 -36 8 -50 11 -14 2
-34 6 -46 9 -12 3 -39 7 -60 10 -21 4 -50 8 -64 11 -26 4 -67 9 -165 20 -56 7
-522 13 -528 8z"/>
<path d="M6769 6522 l-66 -3 -1 -1582 c0 -870 -1 -1592 -1 -1604 -1 -19 -7
-22 -41 -21 -23 0 -44 -2 -47 -5 -3 -4 -14 -2 -24 3 -12 7 -20 7 -24 0 -4 -6
-13 -7 -22 -2 -8 5 -32 6 -52 2 -20 -4 -46 -3 -57 0 -10 4 -29 4 -41 -1 -12
-5 -25 -4 -27 0 -3 5 -25 5 -48 1 -24 -5 -50 -5 -58 -1 -19 8 -42 8 -57 -2 -6
-4 -14 -3 -18 2 -3 6 -15 7 -26 3 -11 -4 -36 -6 -55 -4 l-34 4 0 1093 0 1094
-21 6 c-11 4 -22 5 -23 3 -2 -1 -18 -29 -37 -60 -18 -32 -37 -58 -42 -58 -4 0
-6 -4 -3 -9 3 -5 -1 -14 -9 -21 -8 -7 -15 -18 -15 -25 0 -8 -3 -15 -7 -17 -10
-4 -63 -85 -63 -94 0 -4 -10 -21 -23 -38 -13 -17 -55 -82 -93 -144 -38 -62
-76 -124 -84 -137 -62 -100 -197 -314 -253 -403 -37 -59 -70 -115 -74 -124 -3
-10 -9 -18 -14 -18 -5 0 -9 -7 -9 -15 0 -8 -4 -15 -10 -15 -5 0 -10 -4 -10
-10 0 -5 -27 -51 -60 -102 -33 -51 -60 -99 -60 -105 0 -7 -4 -13 -8 -13 -5 0
-15 -12 -23 -27 -8 -16 -17 -32 -22 -38 -27 -36 -67 -102 -67 -112 0 -7 -4
-13 -9 -13 -5 0 -14 -12 -20 -28 -6 -15 -22 -40 -35 -56 l-23 -30 -14 26 c-48
88 -59 106 -73 117 -9 8 -16 17 -16 22 0 7 -63 111 -87 145 -5 5 -14 21 -22
35 -57 96 -177 285 -183 287 -4 2 -8 8 -8 12 0 5 -25 48 -55 95 -30 46 -55 89
-55 95 0 5 -3 10 -8 10 -4 0 -12 9 -17 20 -13 27 -158 262 -196 318 -16 23
-29 47 -29 52 0 6 -4 10 -10 10 -5 0 -10 4 -10 10 0 9 -60 109 -97 160 -10 14
-26 41 -37 60 -10 19 -24 42 -32 51 -8 8 -14 21 -14 27 0 7 -4 12 -10 12 -5 0
-10 4 -10 9 0 24 -85 141 -102 141 -17 0 -18 -44 -18 -1101 0 -1030 -1 -1103
-17 -1132 -10 -18 -24 -38 -30 -45 -7 -7 -13 -17 -13 -22 0 -4 -27 -54 -60
-109 -33 -56 -60 -104 -60 -108 0 -3 -6 -14 -14 -22 -8 -9 -26 -38 -41 -66
-14 -27 -37 -68 -51 -90 -13 -22 -27 -47 -31 -55 -4 -8 -17 -32 -30 -53 -24
-39 -33 -53 -93 -162 -19 -33 -37 -62 -40 -65 -4 -3 -22 -35 -41 -73 -18 -37
-37 -67 -41 -67 -5 0 -8 -9 -8 -20 0 -12 12 -26 33 -36 17 -9 40 -23 50 -32 9
-8 17 -12 17 -9 0 4 16 -5 36 -18 20 -14 43 -25 50 -25 7 0 14 -3 16 -7 3 -8
126 -70 218 -111 103 -45 349 -133 410 -146 14 -3 58 -14 99 -25 41 -11 78
-18 82 -15 4 2 10 0 14 -6 4 -6 10 -8 15 -5 5 3 11 1 15 -5 4 -6 10 -8 14 -5
5 2 42 -2 82 -9 70 -14 94 -17 234 -32 70 -8 484 -9 565 -1 67 6 156 16 190
22 121 20 224 41 325 66 44 12 84 23 89 27 6 3 24 7 41 9 16 2 32 8 33 13 2 6
12 10 22 10 18 0 107 29 155 50 11 5 49 21 85 36 165 67 484 241 512 279 4 5
8 6 8 2 0 -7 33 15 105 70 113 86 182 140 216 171 59 51 243 235 304 302 43
48 207 261 243 316 100 152 114 176 198 340 40 78 70 144 67 148 -4 3 -1 6 6
6 7 0 9 5 6 10 -3 6 -1 10 6 10 7 0 10 3 7 6 -4 3 4 29 17 57 54 125 134 386
161 527 2 14 7 39 11 55 3 17 7 39 9 50 1 11 5 36 9 55 11 59 15 93 21 160 3
36 7 85 10 110 7 83 3 495 -5 495 -1 0 -4 25 -6 55 -6 68 -13 135 -15 135 -1
0 -3 9 -5 20 -10 71 -15 99 -30 170 -22 108 -82 323 -108 385 -5 14 -13 34
-17 45 -61 162 -175 408 -212 458 -13 17 -41 18 -433 20 -231 1 -450 1 -486
-1z"/>
</g>
</svg>
