<svg
                    xmlns="http://www.w3.org/2000/svg"
                    viewBox="0 0 28 28"
                    focusable="false"
                    aria-hidden="true"
                    className="svg-inline--bi bi-2x"
                    height="2rem"
                    width="2rem"
                  >
                    <path fill="#2E77BC" d="M0 0h28v28H0z"></path>
                    <radialGradient
                      id="american-express_svg__a"
                      cx="0.737"
                      cy="-1.052"
                      r="0.793"
                      gradientTransform="matrix(23.2016 15.6743 15.6744 -23.2014 4.345 -29.704)"
                      gradientUnits="userSpaceOnUse"
                    >
                      <stop offset="0" stopColor="#C8E7F9" stopOpacity="0.895"></stop>
                      <stop offset="0.694" stopColor="#10A0DB"></stop>
                      <stop offset="1" stopColor="#10A0DB" stopOpacity="0"></stop>
                    </radialGradient>
                    <path fill="url(#american-express_svg__a)" fillOpacity="0.87" d="M0 0h28v28H0z"></path>
                    <path
                      fill="#FFF"
                      d="M2.5 12.1L2 10.8l-.5 1.3h1zm11.8-.5c-.1.1-.2.1-.4.1H13V11h1c.1 0 .3 0 .4.1.1 0 .2.1.2.3-.2 0-.2.1-.3.2zm6.7.5l-.5-1.3-.5 1.3h1zM8.4 13.5h-.8v-2.6l-1.1 2.6h-.7L4.7 11v2.6H3.1l-.3-.7H1.2l-.3.7H0l1.4-3.3h1.2l1.3 3.1v-3.1h1.3l1 2.2.9-2.2h1.3v3.2zm3.2 0H9v-3.3h2.6v.7H9.8v.6h1.8v.7H9.8v.7h1.8v.6zm3.7-2.4c0 .5-.3.8-.5.9.2.1.3.2.4.3.1.2.1.3.1.6v.6h-.8v-.4c0-.2 0-.5-.1-.6-.1-.1-.3-.1-.6-.1H13v1.2h-.8v-3.3H14c.4 0 .7 0 .9.2.2.1.4.3.4.6zm.4-.8h.8v3.3h-.8v-3.3zm10.1 3.2h-1.1L23.2 11v2.5h-1.6l-.3-.7h-1.6l-.3.7h-.9c-.4 0-.9-.1-1.1-.4-.3-.3-.4-.7-.4-1.3 0-.5.1-.9.4-1.3.3-.3.6-.4 1.2-.4h.8v.9h-.7c-.3 0-.4 0-.6.2-.1.1-.2.4-.2.7 0 .4.1.6.2.8.1.1.3.2.5.2h.4l1.1-2.6h1.2l1.3 3.1v-3.1h1.2l1.4 2.3v-2.3h.8v3.2h-.2zM0 14.2h1.3l.3-.7h.7l.3.7h2.6v-.6l.2.6h1.4l.2-.6v.6h6.5V13h.1c.1 0 .1 0 .1.2v1h3.4v-.3c.3.1.7.3 1.3.3h1.4l.3-.7h.7l.3.7h2.7v-.7l.4.7h2.2V9.6h-2.2v.5l-.2-.5h-2.2v.5l-.3-.5h-3c-.5 0-.9.1-1.3.3v-.3h-2.1v.3c-.2-.2-.5-.3-.9-.3H6.7l-.5 1.2-.6-1.2H3.2v.5L3 9.6H1l-1 2.2v2.4zm28 2.4h-1.4c-.1 0-.2 0-.3.1-.1.1-.1.1-.1.2s.1.2.2.2h.7c.4 0 .7.1.9.3l.1.1v-.9zm0 2.2c-.2.3-.6.4-1.1.4h-1.5v-.7h1.5c.1 0 .3 0 .3-.1.1-.1.1-.1.1-.2s0-.2-.1-.2-.1-.1-.3-.1c-.7 0-1.6 0-1.6-1 0-.5.3-1 1.1-1H28v-.7h-1.4c-.4 0-.8.1-1 .3v-.3h-2.1c-.3 0-.7.1-.9.3v-.3h-3.8v.3c-.3-.2-.8-.3-1.1-.3h-2.5v.3c-.2-.2-.8-.3-1.1-.3h-2.8l-.6.7-.7-.7H5.8v4.6h4.1l.7-.7.6.7h2.5v-1.1h.3c.3 0 .7 0 1.1-.2v1.2h2.1v-1.2h.1c.1 0 .1 0 .1.1v1.1h6.4c.4 0 .8-.1 1.1-.3v.3h2c.4 0 .8-.1 1.1-.2v-.7zm-3.1-1.4c.2.2.2.4.2.7 0 .7-.4 1-1.2 1h-1.5v-.7h1.5c.1 0 .3 0 .3-.1.1-.1.1-.1.1-.2s0-.2-.1-.2-.1-.1-.3-.1c-.7 0-1.6 0-1.6-1 0-.5.3-1 1.1-1H25v.7h-1.4c-.1 0-.2 0-.3.1-.1.1-.1.1-.1.2s.1.2.2.2h.7c.3.2.6.3.8.4zm-7.1-.2c-.1.1-.2.1-.4.1h-.9v-.7h1c.1 0 .3 0 .4.1.1.1.2.2.2.3-.1.1-.2.2-.3.2zm.5.4c.2.1.3.2.4.3.1.2.1.3.1.6v.6H18v-.4c0-.2 0-.5-.1-.6-.1-.1-.3-.1-.6-.1h-.8v1.2h-.8v-3.3h1.8c.4 0 .7 0 .9.2.2.1.4.4.4.7.1.5-.3.8-.5.8zm1-1.7h2.6v.7h-1.8v.6h1.8v.7h-1.8v.7h1.8v.7h-2.6v-3.4zM14 17.4h-1v-.8h1c.3 0 .5.1.5.4 0 .3-.2.4-.5.4zm-1.8 1.5L11 17.6l1.2-1.3v2.6zm-3-.4h-2v-.7h1.7v-.7H7.2v-.6h2l.9 1-.9 1zm6.2-1.5c0 .9-.7 1.1-1.4 1.1h-1v1.1h-1.5l-1-1.1-1 1.1h-3v-3.3h3.1l1 1.1 1-1.1H14c.7 0 1.4.2 1.4 1.1z"
                    ></path>
                  </svg>