<svg
                  xmlns="http://www.w3.org/2000/svg"
                  viewBox="0 0 28 28"
                  focusable="false"
                  aria-hidden="true"
                  width="2em"
                  height="2em"
                  className="tw-text-2xl"
                >
                  <defs>
                    <linearGradient
                      id="bancontact_svg__a"
                      x1="4.821"
                      x2="13.238"
                      y1="16.122"
                      y2="19.248"
                      gradientTransform="matrix(1 0 0 -1 0 30)"
                      gradientUnits="userSpaceOnUse"
                    >
                      <stop offset="0" stopColor="#005ab9"></stop>
                      <stop offset="1" stopColor="#1e3764"></stop>
                    </linearGradient>
                    <linearGradient
                      id="bancontact_svg__b"
                      x1="14.697"
                      x2="23.635"
                      y1="18.246"
                      y2="21.295"
                      gradientTransform="matrix(1 0 0 -1 0 30)"
                      gradientUnits="userSpaceOnUse"
                    >
                      <stop offset="0" stopColor="#fba900"></stop>
                      <stop offset="1" stopColor="#ffd800"></stop>
                    </linearGradient>
                  </defs>
                  <path
                    fill="#fff"
                    d="M.964 4.236h26.072A.965.965 0 0128 5.2v17.349a.964.964 0 01-.964.964H.964A.964.964 0 010 22.549V5.2a.965.965 0 01.964-.964z"
                  ></path>
                  <path
                    fill="#1e3764"
                    d="M2.493 20.963v-3.324h1.026c.746 0 1.225.28 1.225.859a.774.774 0 01-.365.689.824.824 0 01.489.793c0 .67-.489.983-1.249.983zm.66-1.942h.489c.3 0 .428-.147.428-.418 0-.29-.233-.385-.546-.385h-.371zm0 1.363h.409c.4 0 .631-.1.631-.413s-.2-.437-.574-.437h-.466zm2.995.636c-.651 0-.978-.318-.978-.745 0-.471.384-.746.954-.751a3 3 0 01.423.038v-.114c0-.289-.166-.427-.485-.427a1.662 1.662 0 00-.627.114l-.118-.513a2.341 2.341 0 01.821-.143.923.923 0 011.045 1.012v1.32a2.373 2.373 0 01-1.035.209zm.4-.536v-.509a1.665 1.665 0 00-.337-.038c-.219 0-.39.086-.39.309 0 .2.143.3.394.3a.746.746 0 00.333-.066zm1.1.479v-2.275a2.908 2.908 0 011.074-.209c.693 0 1.092.342 1.092.974v1.51h-.659V19.5c0-.327-.152-.479-.442-.479a1 1 0 00-.418.085v1.857zm4.452-2.341l-.123.518a1.441 1.441 0 00-.537-.119c-.385 0-.593.271-.593.717 0 .489.218.741.626.741a1.339 1.339 0 00.527-.124l.1.527a1.6 1.6 0 01-.684.138 1.156 1.156 0 01-1.244-1.263 1.157 1.157 0 011.206-1.278 1.839 1.839 0 01.717.143zm1.416 2.4a1.154 1.154 0 01-1.187-1.273 1.187 1.187 0 112.369 0 1.147 1.147 0 01-1.182 1.273zm0-.541c.337 0 .513-.28.513-.732s-.176-.726-.513-.726-.516.277-.516.724.186.732.518.732zm1.562.484v-2.277a2.9 2.9 0 011.073-.209c.693 0 1.092.342 1.092.974v1.51h-.655V19.5c0-.327-.152-.479-.442-.479a1 1 0 00-.418.085v1.857zm3.643.057c-.565 0-.855-.309-.855-.935v-1.028h-.323v-.523h.323v-.527l.656-.033v.56h.527v.523h-.527v1.016c0 .276.114.4.327.4a1.12 1.12 0 00.252-.029l.033.527a1.789 1.789 0 01-.413.043zm1.654 0c-.65 0-.978-.318-.978-.745 0-.471.385-.746.955-.751a2.981 2.981 0 01.422.038v-.114c0-.289-.166-.427-.484-.427a1.662 1.662 0 00-.627.114l-.119-.513a2.347 2.347 0 01.822-.143.923.923 0 011.045 1.012v1.32a2.379 2.379 0 01-1.036.209zm.4-.536v-.509a1.65 1.65 0 00-.337-.038c-.218 0-.389.086-.389.309 0 .2.142.3.394.3a.745.745 0 00.332-.066zm2.879-1.862l-.124.518a1.432 1.432 0 00-.536-.119c-.385 0-.594.271-.594.717 0 .489.219.741.627.741a1.335 1.335 0 00.527-.124l.105.527a1.6 1.6 0 01-.684.138 1.155 1.155 0 01-1.244-1.263 1.157 1.157 0 011.206-1.278 1.839 1.839 0 01.717.143zm1.441 2.4c-.565 0-.855-.309-.855-.935v-1.03h-.323v-.523h.323v-.527l.655-.033v.56h.527v.523h-.527v1.016c0 .276.114.4.328.4a1.126 1.126 0 00.252-.029l.033.527a1.794 1.794 0 01-.413.043z"
                  ></path>
                  <path
                    fill="url(#bancontact_svg__a)"
                    d="M7.064 15.977c3.468 0 5.2-2.312 6.936-4.624H2.493v4.624z"
                  ></path>
                  <path
                    fill="url(#bancontact_svg__b)"
                    d="M20.936 6.729c-3.468 0-5.2 2.312-6.936 4.624h11.507V6.729z"
                  ></path>
                </svg>