 <svg
                    xmlns="http://www.w3.org/2000/svg"
                    viewBox="0 0 21 21"
                    focusable="false"
                    aria-hidden="true"
                    className="svg-inline--bi bi-2x"
                    width="2rem"
                    height="2rem"
                  >
                    <g fill="none" fillRule="evenodd">
                      <path
                        fill="#000"
                        d="M20.555 18.306v.068h.057a.055.055 0 00.031-.008.03.03 0 00.012-.026c0-.012-.004-.02-.012-.026a.055.055 0 00-.031-.008h-.057zm.04-.03c.02 0 .035.004.047.013.01.01.016.022.016.038a.045.045 0 01-.013.033.065.065 0 01-.038.016l.052.06h-.04l-.049-.06h-.015v.06h-.034v-.16h.073zm-.01.216a.132.132 0 00.122-.082.138.138 0 00.01-.053.136.136 0 00-.08-.124.136.136 0 00-.104 0 .133.133 0 00-.082.124.136.136 0 00.08.124.13.13 0 00.053.01zm0-.309a.176.176 0 01.16.106.175.175 0 01-.093.227.167.167 0 01-.068.014.17.17 0 01-.124-.051.174.174 0 010-.245.17.17 0 01.124-.05zM4.53 17.564c0-.306.198-.558.522-.558.31 0 .518.24.518.558 0 .318-.208.558-.518.558-.324 0-.522-.251-.522-.558zm1.393 0v-.872H5.55v.212a.65.65 0 00-.544-.255c-.482 0-.86.383-.86.915 0 .533.378.916.86.916a.65.65 0 00.544-.255v.21h.374v-.87zm12.643 0c0-.306.198-.558.522-.558.31 0 .518.24.518.558 0 .318-.209.558-.518.558-.324 0-.522-.251-.522-.558zm1.393 0v-1.572h-.374v.912a.649.649 0 00-.544-.255c-.482 0-.86.383-.86.915 0 .533.378.916.86.916a.65.65 0 00.544-.255v.21h.374v-.87zm-9.392-.576c.241 0 .396.153.436.423h-.893c.04-.252.19-.423.457-.423zm.007-.34c-.504 0-.857.373-.857.916 0 .554.368.916.883.916.258 0 .496-.066.705-.245l-.183-.28a.813.813 0 01-.501.182c-.241 0-.46-.113-.515-.427h1.278a1.82 1.82 0 00.007-.146c-.003-.543-.334-.915-.817-.915zm4.518.916c0-.306.198-.558.522-.558.31 0 .518.24.518.558 0 .318-.208.558-.518.558-.324 0-.522-.251-.522-.558zm1.393 0v-.872h-.374v.212a.649.649 0 00-.544-.255c-.482 0-.86.383-.86.915 0 .533.378.916.86.916a.65.65 0 00.544-.255v.21h.374v-.87zm-3.506 0c0 .529.364.916.918.916a.891.891 0 00.619-.208l-.18-.307a.75.75 0 01-.45.157c-.299-.004-.518-.222-.518-.558 0-.335.22-.554.518-.558a.75.75 0 01.45.157l.18-.306a.894.894 0 00-.62-.208c-.553 0-.917.386-.917.915zm4.824-.915a.506.506 0 00-.454.255v-.212h-.37v1.744h.374v-.978c0-.288.122-.448.367-.448a.6.6 0 01.234.043l.115-.357a.792.792 0 00-.266-.047zm-10.03.182c-.18-.12-.428-.182-.701-.182-.436 0-.717.211-.717.558 0 .284.209.46.594.514l.177.026c.205.029.302.083.302.182 0 .135-.137.212-.392.212a.909.909 0 01-.573-.183l-.176.295c.205.154.464.227.745.227.497 0 .785-.237.785-.57 0-.306-.227-.466-.602-.52l-.176-.027c-.162-.021-.292-.054-.292-.17 0-.128.123-.205.328-.205.22 0 .432.084.537.15l.161-.307zm4.828-.182a.506.506 0 00-.454.255v-.212h-.37v1.744h.374v-.978c0-.288.123-.448.367-.448.076 0 .155.01.234.043l.116-.357a.796.796 0 00-.267-.047zm-3.193.043h-.612v-.529h-.378v.53h-.35v.346h.35v.795c0 .405.155.646.597.646.162 0 .35-.051.468-.135l-.107-.325a.684.684 0 01-.332.098c-.187 0-.248-.116-.248-.291v-.788h.612v-.347zm-5.595 1.744v-1.094c0-.412-.258-.69-.676-.693a.664.664 0 00-.605.31.63.63 0 00-.569-.31.567.567 0 00-.504.258v-.215h-.374v1.744h.378v-.967c0-.303.166-.463.421-.463.248 0 .375.164.375.46v.97h.377v-.967c0-.303.173-.463.422-.463.255 0 .378.164.378.46v.97h.377z"
                      ></path>
                      <path fill="#E15D29" d="M7.65 13.73h5.67V3.404H7.65z"></path>
                      <path
                        fill="#D2232C"
                        d="M8.01 8.567c0-2.095.968-3.96 2.475-5.163A6.399 6.399 0 006.48 2C2.901 2 0 4.94 0 8.567c0 3.627 2.901 6.567 6.48 6.567a6.399 6.399 0 004.005-1.404A6.588 6.588 0 018.01 8.567"
                      ></path>
                      <path
                        fill="#EC972D"
                        d="M20.769 12.636v-.255h-.066l-.076.176-.075-.176h-.066v.255h.046v-.192l.071.166h.048l.071-.167v.193h.047zm-.416 0v-.211h.084v-.043h-.215v.043h.084v.211h.047zm.618-4.07c0 3.628-2.901 6.568-6.48 6.568a6.397 6.397 0 01-4.005-1.405 6.587 6.587 0 002.475-5.162c0-2.095-.968-3.96-2.475-5.163A6.399 6.399 0 0114.49 2c3.58 0 6.48 2.94 6.48 6.567z"
                      ></path>
                    </g>
                  </svg>