 <svg
                    xmlns="http://www.w3.org/2000/svg"
                    viewBox="0 0 28 28"
                    focusable="false"
                    aria-hidden="true"
                    className="svg-inline--bi bi-2x"
                    height="2rem"
                    width="2rem"
                  >
                    <path
                      fill="#1a1f71"
                      d="M28 21.709a1.037 1.037 0 01-1.041 1.041H1.041A1.037 1.037 0 010 21.709V6.173a1.037 1.037 0 011.041-1.042h25.918A1.037 1.037 0 0128 6.173z"
                    ></path>
                    <path
                      fill="#fff"
                      d="M10.645 10.261L7.521 17.7H5.477l-1.543-5.935a.848.848 0 00-.463-.656 7.794 7.794 0 00-1.89-.617l.039-.231H4.9a.873.873 0 01.887.771l.81 4.32L8.6 10.3h2.044zm7.983 5.013c0-1.966-2.7-2.082-2.7-2.931 0-.27.27-.54.81-.617a3.363 3.363 0 011.89.347l.347-1.581a5.4 5.4 0 00-1.812-.347c-1.89 0-3.24 1-3.24 2.468 0 1.08.964 1.659 1.7 2.006s1 .578 1 .925c0 .5-.579.733-1.157.733a4.288 4.288 0 01-1.967-.463l-.347 1.62a5.941 5.941 0 002.121.386c2 0 3.317-1 3.355-2.546m5.014 2.43h1.774l-1.543-7.443h-1.658a.852.852 0 00-.81.54l-2.893 6.9h2.006l.386-1.118h2.468zm-2.16-2.622l1-2.777.578 2.777zm-8.1-4.821L11.8 17.7H9.873l1.582-7.443z"
                    ></path>
                  </svg>